<svg xmlns="http://www.w3.org/2000/svg" version="1.1" xmlns:xlink="http://www.w3.org/1999/xlink" xmlns:svgjs="http://svgjs.dev/svgjs" width="1500" height="1687" viewBox="0 0 1500 1687"><g transform="matrix(1,0,0,1,0.000011718749760802893,0)"><svg viewBox="0 0 320 360" data-background-color="#4d7e3e" preserveAspectRatio="xMidYMid meet" height="1687" width="1500" xmlns="http://www.w3.org/2000/svg" xmlns:xlink="http://www.w3.org/1999/xlink"><g id="tight-bounds" transform="matrix(1,0,0,1,0.0000025000000505315256,0)"><svg viewBox="0 0 320 360" height="360" width="320"><g><svg></svg></g><g><svg viewBox="0 0 320 360" height="360" width="320"><g><path transform="translate(-19.44751,3.1739) scale(3.53591,3.53591)" d="M67.6 10.7c0.2 0 1.8 0.8 2.7 1.1-0.3 0.1-1-0.2-1.8-0.5 0.2 0 0.6 0.1 1 0.3-0.2-0.2-1.7-0.7-1.9-0.9M52.7 7.6c0.3-0.1 3.8 0.4 5.4 0.5 0.1-0.1-0.2-0.1-0.6-0.2 0.5-0.1 1.5 0.2 2.2 0.3-2.1 0.1-4.4-0.5-6.4-0.3-0.7 0-0.2-0.2-0.6-0.3M49.8 7.6c1.8 0 3.2 0 0.6 0.2-0.3-0.1-0.7-0.1-0.6-0.2M78.1 15.9c0.2 0 1 0.9 1.4 1.2-0.1 0.1-0.9-0.7-1.3-1 0.1 0.1 0 0-0.1-0.2M76.1 14.6c-0.8-0.7-1.1-0.7-1.2-1.1 0.7 0.4 1.2 0.8 1.2 1.1M63.2 8.3c0.1-0.1 0.3 0.1 0.8 0.2-0.6-0.1-0.5 0-0.3 0.2-0.7-0.1-0.9-0.2-0.7-0.4 0.4 0.2 0.5 0.1 0.2 0M34.8 9.5c0-0.1 0.4-0.3 0.7-0.4-0.3 0.2-0.2 0.3 0.3 0.1 0 0.1-0.6 0.3-1 0.5 0.2-0.1 0.4-0.4 0-0.2M65.2 7.3c-0.3 0.1-1.4-0.5-2.5-0.7-0.6-0.2 2.4 0.5 2.5 0.7M6.2 56.7c0.6 2.5 0.2 2.4 0 0M6.3 41.7c0.1-0.4 0.2-1.5 0.3-1.4-0.3 2.4-0.8 3.5-0.9 5.3 0.3-1.6-0.1 0.9-0.2 1.5 0.1 0.8 0.1-0.5 0.3-0.3 0.2 0.3-0.4 4.5-0.2 2.2-0.2 2.1 0 4.4 0.4 5-0.5 3.2 2 10.4 2.5 11.9 0.1 0.1 0-0.5 0.2-0.1 0.2 1.3 1.1 2.2 1.4 3.6 0.3 0.4 1.5 2.6 1.7 3.1 0.4 0.8 0.6 0.7 1 1.5 1.2 2.3 3.1 4.5 4.9 6.6 5.8 6.8 14.7 12.4 24.6 14.4 9.9 2.1 20.3 0.6 28.4-3.3 0.5-0.3 0.4-0.4 1-0.6 2.8-0.9 6.2-3.8 8.1-4.9 0.9-1 3.3-2.7 3.6-3.7 1.7-1.4 3.4-3.7 4.3-5.2 0.5-0.8 0.9-0.8 1.1-1.3-0.1 0 1.6-2.1 2.1-3.3-0.2 0-0.5 0.6-0.5 0 3.6-6.9 5.6-16.2 4.5-22.6 0.2 7.9-1.8 16.7-5.6 22.3-1.7 3.6-5.2 7.5-8.4 10.3-0.5 0.5-1 1.1-1.6 1.5-1.9 1.6-4 2.9-6.2 4.1-5.2 2.9-11 5.4-17.8 5.5 11.7-1 22.2-6.9 28-14.1-4.4 4.3-6.3 6-11.2 8.5-0.4 0.7-3.7 2.1-5.9 2.7 1.3-0.6 4-1.6 4.9-2.4-7.3 3.5-15.4 5.5-23 4.4 2.9 0 7 0.1 10.9-0.6 0.6-0.2 0.9-0.4 1.6-0.5 7.6-1.7 14.9-5.4 20.1-10.6-3 2.7-7.5 5.9-10.4 6.9 2.7-1.5 7.6-4.4 9.2-6.6-3.2 3.2-9.2 6.4-13 7.8-0.6 0.1 0.4-0.4-0.6 0-1.2 0.3-0.7 0.3-1 0.5-4.6 1.3-9.9 2.4-14.3 2-0.8-0.1-1.1-0.3-1.8-0.3-0.8-0.1-1.5-0.1-2.4-0.1-3.5-0.4-7.3-1.8-10.1-3-1.5-0.7-3-1.2-4.5-2.1-1.2-0.7-2.2-1.5-3.2-2.3-3.8-2.8-7-5.6-10-9.6-5.4-7.5-8.2-16.9-7.8-26.2 0.4-9.3 4.1-18.4 10-25.1-0.3 0.3 0.4-0.7 1-1.3 0 0.2-0.1 0.5 0.6-0.2 0.6-0.7-0.2-0.2 0.1-0.6 6.2-6.8 17-12.3 28.1-12.5 0.4-0.3 1.1-0.7 1.9-0.5 0 0.1-0.5 0.1-0.5 0.1 1.1-0.1 2.1-0.1 2.6 0.1 0.1-0.1-0.4-0.2 0-0.2 0.7 0.2 0.9 0 1.3 0.2-0.3 0-0.6 0-0.8 0.1 2.5 0 4.1 0.6 6.6 0.8-1.3-0.3-1.6-0.3-2.6-0.6 1.1 0.2 1.6 0.4 2.1 0.3-0.2 0-0.1-0.3 0.1-0.2 2 0.5 2.2 0.7 4.3 1.4 0.2-0.2-0.9-0.3-1.2-0.6 2 0.7 3.8 1.2 5 2-0.4-0.3-1.6-0.7-2.5-1.1-0.1 0.1 0.3 0.2 0.4 0.4-1-0.5-2.4-1-3.8-1.2 1.2 0.3 2 0.7 2.5 0.9-1.1-0.2-2.5-0.9-4.1-1.2 2.6 0.8 7.5 2.6 10.5 4.2-1.1-0.7-2.4-1.2-3.1-1.6 0.6 0.1 1.3 0.5 1.3 0.3 0.7 0.3 1.6 1 2.1 1.1-0.9-0.6-2.7-1.5-3.3-1.8 7.5 3.4 14.2 9.1 18.5 16.4 0.4 0.7 1 2.3 1.5 2.5-0.1-0.5-0.5-0.8-0.9-1.6 0.2 0 0.2-0.3 0-0.6-0.4-0.5 0 0.4-0.4-0.1-1.8-3.3-4-6.2-7.4-9.4 1.9 1.8 0.5 0.5 0.1-0.1 2.6 2.3 5.6 6.2 6.9 8.2-0.2-0.3-0.3-0.5-0.2-0.5 2.4 4.1 3.9 7.8 5.4 13.1 0.1 0.1 0-0.4 0.2-0.1 1 4.2 1.3 7.7 1.2 10.9 0.8-5.4-1-13.8-4.2-20.4-0.4-0.8-0.4-0.2-0.8-1.1 0-0.3-0.3-0.9-0.5-1.3-4-6.6-8.9-11.3-14.7-15 0.4 0.2 1.2 0.8 1.2 0.7-10.8-7.1-23.3-8.1-33.6-5.9-0.7 0.3-1 0.6-1.8 1 1.5-0.5 2.4-0.6 3.8-0.9 0.3-0.3-1.3 0.1-0.6-0.2 0.1 0.1 1.4-0.2 1.7-0.1 0 0.1-0.4 0.2-0.5 0.3 3.3-0.7 6.7-0.8 9.6-0.6-1.7 0.1-4.8-0.2-5.8 0.3 1-0.1 2.4-0.2 3.3-0.1-1.2 0-3.4 0.1-4.4 0.2-0.1-0.1 1.6-0.3 0.5-0.3-0.5 0.1-1.3 0.1-1.6 0.4-8.6 0.8-17 5.3-22.9 10.6-1.2 1-2.6 2.1-3.5 3.2-2.2 2.5-3.6 5-5.2 7.2 1-2.1 3.2-5.3 5.8-8 2.6-2.7 5.4-5 6.9-6.2 0 0.4 2.4-1.5 3.3-2.1-0.6 0.5 0.4-0.2 0.6-0.1 3.2-1.9 5.8-2.6 8.7-3.7-0.7 0.2-1.3 0.4-1.4 0.3 0.7-0.2 1.1-0.4 1-0.5-2.8 0.8-7.2 2.7-10.7 4.8 6.3-4.3 14.3-6.9 22.2-7 7.9-0.2 15.6 1.8 21.7 5 4.1 1.8 8 5.1 11.1 8.3 0.9 0.8 0.2-0.2 1.5 1.2-0.4-0.2-0.7-0.4-0.2 0.2 0.8 0.9-0.2-0.7 1.1 0.9-0.1 0-0.5-0.5-0.5-0.3 3.5 3.1 6.2 8.7 7.8 12.4-0.4-1.5-1.4-3.6-2.2-5.1 2.4 4.4 3.2 7 4.2 10.9 0.4 0.3-0.2-1.4 0.2-0.6 0.1 0.6 0.2 2.5 0.6 2.8-0.3-1.9-0.8-4.2-1.2-4.6 0.3 0.2-0.5-2.3-1-2.9-0.2-1.6-1.6-4.4-2.8-6.5-4.3-8.4-12-15.3-20.6-19.1 0-0.2-0.5-0.4-0.7-0.6-8.5-3.6-18.7-4.6-28.5-2.3-9.9 2.4-19.2 8.1-25.8 16.3 0.3-1 2.8-2.9 2.9-3.7-2.9 3.1-6 7.2-8.1 11.6-2.2 4.4-3.4 8.9-3.9 12.2" fill="#f9cc0b" fill-rule="nonzero" stroke="none" stroke-width="1" stroke-linecap="butt" stroke-linejoin="miter" stroke-miterlimit="10" stroke-dasharray="" stroke-dashoffset="0" font-family="none" font-weight="none" font-size="none" text-anchor="none" style="mix-blend-mode: normal" data-fill-palette-color="tertiary"></path></g><g transform="matrix(1,0,0,1,48,142.45788118673192)"><svg viewBox="0 0 224 75.08423762653618" height="75.08423762653618" width="224"><g><svg viewBox="0 0 323.5695311139566 108.45969447708575" height="75.08423762653618" width="224"><g><rect width="4.510111306603995" height="108.45969447708575" x="83.25284570629505" y="0" fill="#fdfefb" opacity="1" stroke-width="0" stroke="transparent" fill-opacity="1" class="rect-qz-0" data-fill-palette-color="primary" rx="1%" id="qz-0" data-palette-color="#fdfefb"></rect></g><g transform="matrix(1,0,0,1,99.56953111395661,0.2698002350176196)"><svg viewBox="0 0 223.99999999999997 107.92009400705051" height="107.92009400705051" width="223.99999999999997"><g id="textblocktransform"><svg viewBox="0 0 223.99999999999997 107.92009400705051" height="107.92009400705051" width="223.99999999999997" id="textblock"><g><svg viewBox="0 0 223.99999999999997 107.92009400705051" height="107.92009400705051" width="223.99999999999997"><g transform="matrix(1,0,0,1,0,0)"><svg width="223.99999999999997" viewBox="2.999999999999999 -37.5 170.20000000000002 79" height="107.92009400705051" data-palette-color="#fdfefb"><svg></svg><svg></svg><g class="wordmark-text-0" data-fill-palette-color="primary" id="text-0"><path d="M13.2 0.5v0c-2.067 0-3.817-0.193-5.25-0.58-1.433-0.38-2.917-0.953-4.45-1.72v0l-0.5-8.2h0.8l2.45 5.3c1.2 1 2.367 1.723 3.5 2.17 1.133 0.453 2.283 0.68 3.45 0.68v0c1.967 0 3.507-0.517 4.62-1.55 1.12-1.033 1.68-2.433 1.68-4.2v0c0-1.467-0.323-2.617-0.97-3.45-0.653-0.833-1.587-1.577-2.8-2.23-1.22-0.647-2.663-1.387-4.33-2.22v0c-1.567-0.8-2.9-1.583-4-2.35-1.1-0.767-1.933-1.66-2.5-2.68-0.567-1.013-0.85-2.287-0.85-3.82v0c0-1.133 0.277-2.243 0.83-3.33 0.547-1.08 1.297-2.063 2.25-2.95 0.947-0.88 2.013-1.58 3.2-2.1 1.18-0.513 2.403-0.77 3.67-0.77v0c1.533 0 2.95 0.183 4.25 0.55 1.3 0.367 2.633 0.883 4 1.55v0l0.5 8h-0.8l-2.3-5.25c-1.167-0.867-2.183-1.493-3.05-1.88-0.867-0.38-1.867-0.57-3-0.57v0c-1.467 0-2.673 0.5-3.62 1.5-0.953 1-1.43 2.233-1.43 3.7v0c0 1.7 0.517 3.023 1.55 3.97 1.033 0.953 2.65 1.963 4.85 3.03v0c2.033 1 3.7 1.923 5 2.77 1.3 0.853 2.267 1.83 2.9 2.93 0.633 1.1 0.95 2.5 0.95 4.2v0c0 1.567-0.333 2.94-1 4.12-0.667 1.187-1.523 2.18-2.57 2.98-1.053 0.8-2.203 1.4-3.45 1.8-1.253 0.4-2.447 0.6-3.58 0.6zM34.35 0.5v0c-1.567 0-2.867-0.46-3.9-1.38-1.033-0.913-1.55-2.187-1.55-3.82v0c0-1.633 0.61-3.05 1.83-4.25 1.213-1.2 3.253-2.133 6.12-2.8v0l4.75-1.1v-3.65c0-1.133-0.457-2.11-1.37-2.93-0.92-0.813-1.963-1.22-3.13-1.22v0c-1.267 0-2.15 0.34-2.65 1.02-0.5 0.687-0.75 1.597-0.75 2.73v0 1.4l-0.25 0.25h-2.6c-0.5 0-0.84-0.083-1.02-0.25-0.187-0.167-0.28-0.55-0.28-1.15v0c0-0.733 0.217-1.483 0.65-2.25 0.433-0.767 1.1-1.433 2-2v0c0.933-0.6 1.91-1.1 2.93-1.5 1.013-0.4 2.103-0.6 3.27-0.6v0c1.167 0 2.31 0.167 3.43 0.5 1.113 0.333 2.02 0.89 2.72 1.67 0.7 0.787 1.05 1.88 1.05 3.28v0 14.2c0.233 0.233 0.567 0.433 1 0.6 0.433 0.167 1.033 0.25 1.8 0.25v0h1.9l0.15 0.1v0.15c-0.4 0.733-0.993 1.373-1.78 1.92-0.78 0.553-1.737 0.83-2.87 0.83v0c-1.033 0-1.873-0.277-2.52-0.83-0.653-0.547-1.113-1.27-1.38-2.17v0h-0.3c-0.867 0.867-1.94 1.583-3.22 2.15-1.287 0.567-2.63 0.85-4.03 0.85zM32.8-5.7v0c0 2.067 1.25 3.1 3.75 3.1v0c0.8 0 1.59-0.083 2.37-0.25 0.787-0.167 1.68-0.467 2.68-0.9v0-7.4c-2.667 0.5-4.617 1.023-5.85 1.57-1.233 0.553-2.033 1.147-2.4 1.78-0.367 0.633-0.55 1.333-0.55 2.1zM64.1 0h-10.7v-0.8l3.15-1.6v-29.4l-3-2.6v-0.35l6.7-2.75h0.3v18.2h0.2c1.267-1.267 2.49-2.2 3.67-2.8 1.187-0.6 2.497-0.9 3.93-0.9v0c1.967 0 3.573 0.49 4.82 1.47 1.253 0.987 1.88 2.447 1.88 4.38v0 14.75l3.15 1.6v0.8h-10.7v-0.8l3.55-1.45v-12.55c0-1.467-0.46-2.583-1.38-3.35-0.913-0.767-2.103-1.15-3.57-1.15v0c-0.9 0-1.89 0.15-2.97 0.45-1.087 0.3-1.947 0.733-2.58 1.3v0 15.3l3.55 1.45zM87.9 0.5v0c-1.567 0-2.867-0.46-3.9-1.38-1.033-0.913-1.55-2.187-1.55-3.82v0c0-1.633 0.607-3.05 1.82-4.25 1.22-1.2 3.263-2.133 6.13-2.8v0l4.75-1.1v-3.65c0-1.133-0.46-2.11-1.38-2.93-0.913-0.813-1.953-1.22-3.12-1.22v0c-1.267 0-2.15 0.34-2.65 1.02-0.5 0.687-0.75 1.597-0.75 2.73v0 1.4l-0.25 0.25h-2.6c-0.5 0-0.84-0.083-1.02-0.25-0.187-0.167-0.28-0.55-0.28-1.15v0c0-0.733 0.217-1.483 0.65-2.25 0.433-0.767 1.1-1.433 2-2v0c0.933-0.6 1.907-1.1 2.92-1.5 1.02-0.4 2.113-0.6 3.28-0.6v0c1.167 0 2.31 0.167 3.43 0.5 1.113 0.333 2.02 0.89 2.72 1.67 0.7 0.787 1.05 1.88 1.05 3.28v0 14.2c0.233 0.233 0.567 0.433 1 0.6 0.433 0.167 1.033 0.25 1.8 0.25v0h1.9l0.15 0.1v0.15c-0.4 0.733-0.993 1.373-1.78 1.92-0.78 0.553-1.737 0.83-2.87 0.83v0c-1.033 0-1.877-0.277-2.53-0.83-0.647-0.547-1.103-1.27-1.37-2.17v0h-0.3c-0.867 0.867-1.943 1.583-3.23 2.15-1.28 0.567-2.62 0.85-4.02 0.85zM86.35-5.7v0c0 2.067 1.25 3.1 3.75 3.1v0c0.8 0 1.59-0.083 2.37-0.25 0.787-0.167 1.68-0.467 2.68-0.9v0-7.4c-2.667 0.5-4.617 1.023-5.85 1.57-1.233 0.553-2.033 1.147-2.4 1.78-0.367 0.633-0.55 1.333-0.55 2.1zM110 0.5h-0.3v-32.3l-3-2.6v-0.35l6.7-2.75h0.3v17.6h0.2c1.267-1.067 2.493-1.85 3.68-2.35 1.18-0.5 2.453-0.75 3.82-0.75v0c1.7 0 3.2 0.433 4.5 1.3 1.3 0.867 2.323 2.09 3.07 3.67 0.753 1.587 1.13 3.48 1.13 5.68v0c0 2.733-0.517 5.057-1.55 6.97-1.033 1.92-2.433 3.38-4.2 4.38-1.767 1-3.75 1.5-5.95 1.5v0c-1.367 0-2.64-0.123-3.82-0.37-1.187-0.253-2.297-0.563-3.33-0.93v0zM118.65-19.55v0c-0.8 0-1.627 0.123-2.48 0.37-0.847 0.253-1.67 0.63-2.47 1.13v0 14.1c0.933 0.733 1.877 1.257 2.83 1.57 0.947 0.32 2.003 0.48 3.17 0.48v0c1.167 0 2.233-0.31 3.2-0.93 0.967-0.613 1.74-1.603 2.32-2.97 0.587-1.367 0.88-3.167 0.88-5.4v0c0-2.9-0.727-5.017-2.18-6.35-1.447-1.333-3.203-2-5.27-2zM140.35 0.5v0c-1.567 0-2.867-0.46-3.9-1.38-1.033-0.913-1.55-2.187-1.55-3.82v0c0-1.633 0.61-3.05 1.83-4.25 1.213-1.2 3.253-2.133 6.12-2.8v0l4.75-1.1v-3.65c0-1.133-0.457-2.11-1.37-2.93-0.92-0.813-1.963-1.22-3.13-1.22v0c-1.267 0-2.15 0.34-2.65 1.02-0.5 0.687-0.75 1.597-0.75 2.73v0 1.4l-0.25 0.25h-2.6c-0.5 0-0.84-0.083-1.02-0.25-0.187-0.167-0.28-0.55-0.28-1.15v0c0-0.733 0.217-1.483 0.65-2.25 0.433-0.767 1.1-1.433 2-2v0c0.933-0.6 1.91-1.1 2.93-1.5 1.013-0.4 2.103-0.6 3.27-0.6v0c1.167 0 2.31 0.167 3.43 0.5 1.113 0.333 2.02 0.89 2.72 1.67 0.7 0.787 1.05 1.88 1.05 3.28v0 14.2c0.233 0.233 0.567 0.433 1 0.6 0.433 0.167 1.033 0.25 1.8 0.25v0h1.9l0.15 0.1v0.15c-0.4 0.733-0.99 1.373-1.77 1.92-0.787 0.553-1.747 0.83-2.88 0.83v0c-1.033 0-1.873-0.277-2.52-0.83-0.653-0.547-1.113-1.27-1.38-2.17v0h-0.3c-0.867 0.867-1.94 1.583-3.22 2.15-1.287 0.567-2.63 0.85-4.03 0.85zM138.8-5.7v0c0 2.067 1.25 3.1 3.75 3.1v0c0.8 0 1.593-0.083 2.38-0.25 0.78-0.167 1.67-0.467 2.67-0.9v0-7.4c-2.667 0.5-4.617 1.023-5.85 1.57-1.233 0.553-2.033 1.147-2.4 1.78-0.367 0.633-0.55 1.333-0.55 2.1zM167.4 0.5v0c-1.467 0-2.733-0.433-3.8-1.3-1.067-0.867-1.6-2.083-1.6-3.65v0-15.7h-4.1v-0.3l4.25-2.05 3.55-5.5h0.3v5.5h6.6v2.35h-6.6v14.85c0 0.867 0.383 1.5 1.15 1.9 0.767 0.4 1.667 0.6 2.7 0.6v0c0.633 0 1.227-0.033 1.78-0.1 0.547-0.067 1.02-0.15 1.42-0.25v0h0.15v0.5c-0.333 0.767-0.993 1.483-1.98 2.15-0.98 0.667-2.253 1-3.82 1z" fill="#fdfefb" fill-rule="nonzero" stroke="none" stroke-width="1" stroke-linecap="butt" stroke-linejoin="miter" stroke-miterlimit="10" stroke-dasharray="" stroke-dashoffset="0" font-family="none" font-weight="none" font-size="none" text-anchor="none" style="mix-blend-mode: normal" data-fill-palette-color="primary" opacity="1"></path><path transform="translate(0,41)" d="M15.75 0h-12.5v-0.8l4-2v-27.4l-4-2v-0.8h12.5v0.8l-4 2v27.4l4 2zM28 0l-16.2-16.9 13.85-13.6-3.55-1.7v-0.8h10.5v0.8l-3.1 1.2-13.15 12.9 15.8 16 3.05 1.3v0.8zM43.65-29.05v0c-0.867 0-1.583-0.293-2.15-0.88-0.567-0.58-0.85-1.287-0.85-2.12v0c0-0.867 0.283-1.583 0.85-2.15 0.567-0.567 1.283-0.85 2.15-0.85v0c0.867 0 1.583 0.283 2.15 0.85 0.567 0.567 0.85 1.283 0.85 2.15v0c0 0.833-0.283 1.54-0.85 2.12-0.567 0.587-1.283 0.88-2.15 0.88zM48.95 0h-10.3v-0.8l3.15-1.6v-14.9l-3-2.6v-0.35l6.7-2.75h0.3v20.6l3.15 1.6zM62 0.5v0c-1.467 0-2.733-0.433-3.8-1.3-1.067-0.867-1.6-2.083-1.6-3.65v0-15.7h-4.1v-0.3l4.25-2.05 3.55-5.5h0.3v5.5h6.6v2.35h-6.6v14.85c0 0.867 0.383 1.5 1.15 1.9 0.767 0.4 1.667 0.6 2.7 0.6v0c0.633 0 1.223-0.033 1.77-0.1 0.553-0.067 1.03-0.15 1.43-0.25v0h0.15v0.5c-0.333 0.767-0.99 1.483-1.97 2.15-0.987 0.667-2.263 1-3.83 1zM77.1 0.5v0c-1.567 0-2.867-0.46-3.9-1.38-1.033-0.913-1.55-2.187-1.55-3.82v0c0-1.633 0.607-3.05 1.82-4.25 1.22-1.2 3.263-2.133 6.13-2.8v0l4.75-1.1v-3.65c0-1.133-0.46-2.11-1.38-2.93-0.913-0.813-1.953-1.22-3.12-1.22v0c-1.267 0-2.15 0.34-2.65 1.02-0.5 0.687-0.75 1.597-0.75 2.73v0 1.4l-0.25 0.25h-2.6c-0.5 0-0.84-0.083-1.02-0.25-0.187-0.167-0.28-0.55-0.28-1.15v0c0-0.733 0.217-1.483 0.65-2.25 0.433-0.767 1.1-1.433 2-2v0c0.933-0.6 1.91-1.1 2.93-1.5 1.013-0.4 2.103-0.6 3.27-0.6v0c1.167 0 2.31 0.167 3.43 0.5 1.113 0.333 2.02 0.89 2.72 1.67 0.7 0.787 1.05 1.88 1.05 3.28v0 14.2c0.233 0.233 0.567 0.433 1 0.6 0.433 0.167 1.033 0.25 1.8 0.25v0h1.9l0.15 0.1v0.15c-0.4 0.733-0.993 1.373-1.78 1.92-0.78 0.553-1.737 0.83-2.87 0.83v0c-1.033 0-1.873-0.277-2.52-0.83-0.653-0.547-1.113-1.27-1.38-2.17v0h-0.3c-0.867 0.867-1.94 1.583-3.22 2.15-1.287 0.567-2.63 0.85-4.03 0.85zM75.55-5.7v0c0 2.067 1.25 3.1 3.75 3.1v0c0.8 0 1.59-0.083 2.37-0.25 0.787-0.167 1.68-0.467 2.68-0.9v0-7.4c-2.667 0.5-4.617 1.023-5.85 1.57-1.233 0.553-2.033 1.147-2.4 1.78-0.367 0.633-0.55 1.333-0.55 2.1z" fill="#fdfefb" fill-rule="nonzero" stroke="none" stroke-width="1" stroke-linecap="butt" stroke-linejoin="miter" stroke-miterlimit="10" stroke-dasharray="" stroke-dashoffset="0" font-family="none" font-weight="none" font-size="none" text-anchor="none" style="mix-blend-mode: normal" data-fill-palette-color="primary" opacity="1"></path></g></svg></g></svg></g></svg></g></svg></g><g transform="matrix(1,0,0,1,0,0.2698002350176125)"><svg viewBox="0 0 71.44627160523747 107.92009400705052" height="107.92009400705052" width="71.44627160523747"><g><svg xmlns="http://www.w3.org/2000/svg" xmlns:xlink="http://www.w3.org/1999/xlink" version="1.1" x="0" y="0" viewBox="24.761855407245655 5 59.58264309935908 90" enable-background="new 0 0 100 100" xml:space="preserve" width="71.44627160523747" height="107.92009400705052" class="icon-icon-0" data-fill-palette-color="accent" id="icon-0"><g fill="#31c48d" data-fill-palette-color="accent"><path d="M73.76 35.603C86.875 48 91.5 66.25 65.633 82.379c3.64-4.928 5.654-9.794 6.096-14.669 0.951-10.516-5.606-19.072-12.835-26.752C48.298 29.7 47.51 18.84 56.413 6.782 54.578 22.641 64.6 26.944 73.76 35.603zM45.288 93.716c6.184-13.053 7.276-20.302-8.197-34.939-4.204-3.977-7.451-8.029-9.71-12.086-2.881 6.435-5.164 20.081 3.244 27.935C36.312 79.938 44.125 83.125 45.288 93.716zM56.709 43.014C48.183 33.954 41.999 21.253 54 5 21.497 17.692 19.625 38.125 39.151 56.597 55.603 72.158 54.75 80.75 48 95 79.875 71.5 68.709 55.764 56.709 43.014z" fill="#31c48d" data-fill-palette-color="accent"></path></g></svg></g></svg></g></svg></g></svg></g></svg></g><defs></defs></svg><rect width="320" height="360" fill="none" stroke="none" visibility="hidden"></rect></g></svg></g></svg>